<svg width="48" height="48" viewBox="0 0 48 48" fill="none" xmlns="http://www.w3.org/2000/svg">
<path fill="currentColor" fill-rule="evenodd" clip-rule="evenodd" d="M25.5303 4.41421C24.5807 3.86519 23.419 3.86519 22.4693 4.41421L22.4651 4.41666L5.51595 14.3262C2.83814 15.8882 3.9346 19.9999 7.04982 19.9999H9.06283C9.02213 20.1089 8.99988 20.2268 8.99988 20.3499V36.9999H7.99988C6.34759 36.9999 4.99988 38.3477 4.99988 39.9999V40.9999C4.99988 42.6522 6.34759 43.9999 7.99988 43.9999H39.9999C41.6522 43.9999 42.9999 42.6522 42.9999 40.9999V39.9999C42.9999 38.3477 41.6522 36.9999 39.9999 36.9999H38.9999V19.9999H40.9498C44.0478 19.9999 45.1678 15.8919 42.4837 14.3262L25.5346 4.41665L25.5303 4.41421ZM36.9999 36.9999V19.3499C36.9999 19.2298 37.021 19.1147 37.0599 19.008L37.0598 18.9999C37.0598 18.4477 37.5075 17.9999 38.0598 17.9999H40.9498C42.0118 17.9999 42.3919 16.588 41.476 16.0537L24.5293 6.14568L24.5275 6.14465C24.1981 5.95504 23.8015 5.95504 23.4721 6.14465L23.4703 6.14568L6.52455 16.0532C5.60236 16.5912 5.98505 17.9999 7.04982 17.9999H33.9998C34.5521 17.9999 34.9998 18.4477 34.9998 18.9999C34.9998 19.5522 34.5521 19.9999 33.9998 19.9999H10.9369C10.9776 20.1089 10.9999 20.2268 10.9999 20.3499V37.9999C10.9999 38.5522 10.5522 38.9999 9.99988 38.9999L7.99988 38.9999C7.45216 38.9999 6.99988 39.4522 6.99988 39.9999V40.9999C6.99988 41.5477 7.45216 41.9999 7.99988 41.9999H39.9999C40.5476 41.9999 40.9999 41.5477 40.9999 40.9999V39.9999C40.9999 39.4522 40.5476 38.9999 39.9999 38.9999H30.9999H14.5499C13.9976 38.9999 13.5499 38.5522 13.5499 37.9999C13.5499 37.4477 13.9976 36.9999 14.5499 36.9999H15.9999V23.3499C15.9999 22.7976 16.4476 22.3499 16.9999 22.3499C17.5522 22.3499 17.9999 22.7976 17.9999 23.3499V36.9999H22.9999V22.3499C22.9999 21.7976 23.4476 21.3499 23.9999 21.3499C24.5522 21.3499 24.9999 21.7976 24.9999 22.3499V36.9999H29.9999V23.9999C29.9999 23.4477 30.4476 22.9999 30.9999 22.9999C31.5522 22.9999 31.9999 23.4477 31.9999 23.9999V36.9999H36.9999ZM23.9999 13.4999C24.8283 13.4999 25.4999 12.8284 25.4999 11.9999C25.4999 11.1715 24.8283 10.4999 23.9999 10.4999C23.1715 10.4999 22.4999 11.1715 22.4999 11.9999C22.4999 12.8284 23.1715 13.4999 23.9999 13.4999Z" />
</svg>
