<svg width="48" height="48" viewBox="0 0 48 48" fill="none" xmlns="http://www.w3.org/2000/svg">
<path fill="currentColor" fill-rule="evenodd" clip-rule="evenodd" d="M20.2728 42.8136C21.0375 43.5878 22.0637 44 23.1704 44C23.2308 44 23.2811 44 23.3415 43.9799C24.4784 43.9296 25.565 43.4571 26.4 42.6226L30.4546 38.6312C30.7062 39.7572 31.2595 40.7727 32.0644 41.577C33.3522 42.874 35.1733 43.5074 37.0547 43.3264C39.1273 43.1253 41.0087 41.9892 42.2261 40.1895C43.7252 37.9676 43.7755 35.062 42.3569 32.9507C41.4816 31.6537 40.1535 30.7589 38.6041 30.4271L42.6487 26.3854C44.3792 24.6461 44.4597 21.9014 42.8197 20.2626L39.0569 16.5024C38.5438 15.9896 37.7992 15.7986 37.095 15.9896C36.3907 16.1807 35.8675 16.7236 35.6965 17.4274C35.4148 18.5735 34.7004 19.6091 33.6943 20.3229C32.155 21.4188 30.1428 21.5394 28.694 20.6145C27.6174 19.9308 26.9433 18.855 26.8025 17.5882C26.6415 16.1706 27.1848 14.6927 28.2513 13.627C28.8851 12.9835 29.6799 12.5311 30.5452 12.3099C31.2495 12.1289 31.8129 11.586 32.0041 10.8923C32.2053 10.1885 32.0041 9.45457 31.4909 8.94181L27.7281 5.18163C26.5409 3.99526 24.7299 3.67354 23.11 4.34715C22.5969 4.55828 22.3555 5.15147 22.5667 5.66422C22.7881 6.17697 23.3817 6.41827 23.8848 6.20714C24.75 5.84519 25.7058 6.00606 26.3095 6.60929L30.0623 10.3695C28.8449 10.6711 27.7281 11.3146 26.8327 12.2094C25.3134 13.7174 24.579 15.7584 24.8003 17.8094C25.0116 19.6996 26.0076 21.2981 27.6074 22.3136C29.7403 23.6709 32.658 23.5301 34.8513 21.9617C36.2498 20.9664 37.2358 19.5286 37.6282 17.9301L41.391 21.6902C42.2462 22.5448 42.1758 24.0127 41.22 24.9678L37.1755 29.0095C36.6623 29.5223 36.4712 30.2763 36.6724 30.9801C36.8837 31.6939 37.4672 32.2268 38.2017 32.3877C39.2279 32.6089 40.0932 33.192 40.6868 34.0767C41.6526 35.5144 41.6023 37.5152 40.556 39.0635C39.6807 40.3605 38.3224 41.1849 36.8535 41.3256C35.5757 41.4463 34.3382 41.024 33.473 40.1594C32.9397 39.6265 32.5775 38.9529 32.4065 38.1989C32.2455 37.4549 31.6922 36.8617 30.9778 36.6505C30.2735 36.4495 29.5391 36.6405 29.0159 37.1633L24.9714 41.205C24.4985 41.6775 23.8948 41.949 23.261 41.9691C22.6674 41.9892 22.0939 41.7781 21.6914 41.3759L17.9386 37.6258C19.156 37.3242 20.2728 36.6807 21.1683 35.7859C21.5606 35.3938 21.5606 34.7604 21.1683 34.3683C20.7759 33.9762 20.142 33.9762 19.7496 34.3683C19.1158 35.0118 18.321 35.4642 17.4557 35.6854C16.7514 35.8563 16.188 36.4093 15.9969 37.103C15.7956 37.8068 15.9969 38.5407 16.51 39.0535L20.2728 42.8136ZM8.94402 31.4925C9.32634 31.8745 9.84952 32.0857 10.3727 32.0857C10.5538 32.0857 10.7349 32.0555 10.9261 32.0153C11.6203 31.8243 12.1535 31.2814 12.3245 30.5776C12.6063 29.4314 13.3206 28.3959 14.3267 27.682C15.8661 26.5862 17.8682 26.4655 19.3271 27.3905C20.4942 28.1345 21.1884 29.351 21.2387 30.7485C21.2689 31.3015 21.7417 31.7237 22.285 31.7137C22.8384 31.6936 23.271 31.221 23.2509 30.6681C23.1704 28.607 22.1341 26.7872 20.4036 25.6914C18.2707 24.3341 15.3529 24.4748 13.1596 26.0432C11.7611 27.0386 10.7751 28.4763 10.3828 30.0749L6.61991 26.3147C6.21747 25.9025 6.00618 25.3495 6.02631 24.7463C6.04643 24.1129 6.31808 23.5097 6.79095 23.0371L10.8355 18.9954C11.3587 18.4726 11.5398 17.7387 11.3386 17.0349C11.1273 16.3211 10.5337 15.7681 9.78915 15.6072C9.03457 15.4464 8.36048 15.0744 7.82724 14.5415C6.96199 13.6769 6.53942 12.4402 6.66016 11.1634C6.80101 9.68544 7.62602 8.33821 8.9239 7.46352C10.4632 6.41791 12.4755 6.36763 13.9243 7.32276C14.8096 7.91594 15.3932 8.77053 15.6145 9.80609C15.7755 10.54 16.3087 11.1232 17.0231 11.3343C17.7173 11.5454 18.4719 11.3443 18.9951 10.8316L20.967 8.86102C21.3594 8.46891 21.3594 7.83551 20.967 7.44341C20.5746 7.05131 19.9408 7.05131 19.5484 7.44341L17.5764 9.39388C17.2444 7.86568 16.3389 6.53855 15.041 5.66386C12.9282 4.23619 10.0206 4.29652 7.79706 5.79456C5.99612 7.01109 4.85922 8.90123 4.658 10.9724C4.48696 12.8524 5.12081 14.6722 6.40863 15.9591C7.21352 16.7634 8.22969 17.3164 9.40683 17.5778L5.36227 21.6195C4.5272 22.4439 4.04427 23.5298 4.00403 24.6759C3.95372 25.8422 4.37629 26.928 5.18118 27.7323L8.94402 31.4925Z" />
</svg>
