<svg width="48" height="48" viewBox="0 0 48 48" fill="none" xmlns="http://www.w3.org/2000/svg">
<path fill="currentColor" fill-rule="evenodd" clip-rule="evenodd" d="M3 6C2.44772 6 2 6.44772 2 7V41C2 41.5523 2.44772 42 3 42C3.13814 42 3.26973 41.972 3.38941 41.9213C3.56392 41.9728 3.7487 42.0004 3.94 42.0004H5.68C6.23228 42.0004 6.68 41.5527 6.68 41.0004C6.68 40.4481 6.23228 40.0004 5.68 40.0004H4V29H6C6.61393 29 7.16194 29.2892 7.685 29.9492C8.22538 30.6311 8.68019 31.6457 9.03848 32.8997C9.75246 35.3987 10 38.5449 10 41C10 41.5523 10.4477 42.0004 11 42.0004H44.06C44.0738 42.0004 44.0875 42.0003 44.1012 42H45C45.5523 42 46 41.5523 46 41V7C46 6.44772 45.5523 6 45 6H28C27.4477 6 27 6.44772 27 7C27 12.3016 29.6329 17.7605 32.7 21.85C34.2421 23.9061 35.9255 25.6591 37.5043 26.909C38.1062 27.3855 38.7026 27.7967 39.2792 28.1248C39.0893 28.3039 38.9122 28.4993 38.7475 28.707C37.9754 29.6814 37.4302 30.9793 37.0385 32.3503C36.9718 32.5837 36.9089 32.8216 36.8497 33.0629C36.7409 33.0222 36.623 33 36.5 33H19C18.4477 33 18 33.4477 18 34C18 34.5523 18.4477 35 19 35H36.4595C36.1832 36.6978 36.0514 38.451 36.0126 40.0004H11.9874C11.9486 38.451 11.8168 36.6978 11.5405 35H14C14.5523 35 15 34.5523 15 34C15 33.4477 14.5523 33 14 33H11.5C11.377 33 11.2591 33.0222 11.1503 33.0629C11.0911 32.8216 11.0282 32.5837 10.9615 32.3503C10.5698 30.9793 10.0246 29.6814 9.2525 28.707C9.08783 28.4993 8.91066 28.3039 8.72078 28.1248C9.29738 27.7967 9.89384 27.3855 10.4957 26.909C12.0745 25.6591 13.7579 23.9061 15.3 21.85C18.1746 18.0173 20.6677 12.9817 20.9694 8H23.04C23.5923 8 24.04 7.55228 24.04 7C24.04 6.44772 23.5923 6 23.04 6H3ZM4.30561 27C4.32444 26.9868 4.35019 26.9673 4.3831 26.939C4.52657 26.8159 4.72222 26.5978 4.95998 26.2602C5.43201 25.59 5.97775 24.5821 6.53566 23.3006C7.64795 20.7458 8.75295 17.2327 9.4047 13.4692C9.49894 12.925 10.0165 12.5602 10.5607 12.6545C11.1049 12.7487 11.4696 13.2663 11.3754 13.8104C10.6971 17.7269 9.54712 21.3938 8.36941 24.099C7.92936 25.1098 7.47756 26.0045 7.03493 26.7356C7.12306 26.6981 7.21521 26.6561 7.31137 26.6091C7.88586 26.3287 8.54348 25.9037 9.2543 25.341C10.6755 24.2159 12.2421 22.5939 13.7 20.65C16.4258 17.0156 18.6628 12.4047 18.9652 8H4V27H4.30561ZM44 29V40H38.0133C38.0731 37.7297 38.3413 35.0705 38.9615 32.8997C39.3198 31.6457 39.7746 30.6311 40.315 29.9492C40.8381 29.2892 41.3861 29 42 29H44ZM43.3582 26.6743C43.5104 26.8517 43.6239 26.9513 43.694 27H44V8H38.0158C38.0728 9.82082 38.2808 11.6651 38.5951 13.4683C38.69 14.0124 38.3258 14.5303 37.7817 14.6251C37.2376 14.72 36.7197 14.3558 36.6249 13.8117C36.2936 11.9112 36.0724 9.95045 36.0149 8H29.0348C29.3372 12.4047 31.5742 17.0156 34.3 20.65C35.7579 22.5939 37.3245 24.2159 38.7457 25.341C39.4565 25.9037 40.1141 26.3287 40.6886 26.6091C40.7843 26.6559 40.8761 26.6977 40.9638 26.7351C40.8103 26.4816 40.6571 26.2107 40.505 25.9253C39.6159 24.257 38.6902 21.9515 37.9113 19.3243C37.7543 18.7948 38.0562 18.2383 38.5857 18.0813C39.1152 17.9243 39.6717 18.2262 39.8287 18.7557C40.5798 21.2885 41.4591 23.463 42.27 24.9847C42.6779 25.75 43.0501 26.3154 43.3582 26.6743Z" />
</svg>
